<svg width="24" height="24" viewBox="0 0 24 24" fill="none" xmlns="http://www.w3.org/2000/svg">
<g clip-path="url(#clip0_549_217)">
<path d="M9.5 16C13.0899 16 16 13.0899 16 9.5C16 5.91015 13.0899 3 9.5 3C5.91015 3 3 5.91015 3 9.5C3 13.0899 5.91015 16 9.5 16Z" stroke="black" stroke-width="2" stroke-linecap="round" stroke-linejoin="round"/>
<path d="M19 10H12C10.8954 10 10 10.8954 10 12V19C10 20.1046 10.8954 21 12 21H19C20.1046 21 21 20.1046 21 19V12C21 10.8954 20.1046 10 19 10Z" stroke="black" stroke-width="2" stroke-linecap="round" stroke-linejoin="round"/>
</g>
<defs>
<clipPath id="clip0_549_217">
<rect width="24" height="24" fill="white"/>
</clipPath>
</defs>
</svg>
