<svg width="20" height="20" viewBox="0 0 20 20" fill="none" xmlns="http://www.w3.org/2000/svg">
<path d="M2.78184 1.01406C2.29367 0.525912 1.50222 0.525912 1.01406 1.01406C0.525912 1.50222 0.525912 2.29367 1.01406 2.78184L8.23246 10.0002L1.01414 17.2186C0.525987 17.7067 0.525987 18.4982 1.01414 18.9863C1.5023 19.4745 2.29375 19.4745 2.7819 18.9863L10.0002 11.768L17.2186 18.9863C17.7067 19.4745 18.4982 19.4745 18.9863 18.9863C19.4745 18.4982 19.4745 17.7067 18.9863 17.2186L11.768 10.0002L18.9865 2.78184C19.4746 2.29367 19.4746 1.50222 18.9865 1.01406C18.4983 0.525912 17.7068 0.525912 17.2187 1.01406L10.0002 8.23246L2.78184 1.01406Z" fill="black"/>
</svg>
