<svg width="113" height="18" viewBox="0 0 113 18" fill="none" xmlns="http://www.w3.org/2000/svg">
<g clip-path="url(#clip0_711_664)">
<path d="M6.16608 16.88H0.726074V1.25996H6.02607C11.8461 1.25996 14.8261 3.13996 14.8261 9.19996C14.8261 15.36 12.0261 16.88 6.16608 16.88ZM4.52608 8.07996L4.16608 8.61996C6.08608 9.23996 8.72608 9.51996 10.8261 9.51996V8.91996C8.72608 8.91996 6.30608 8.57996 4.52608 8.07996ZM28.2814 16.9H15.9214V1.25996H28.2814V5.95996H21.9214V6.65996H28.2814V11.5H21.9214V12.2H28.2814V16.9ZM35.61 1.25996L36.69 5.63996L35.91 8.63996L36.45 8.77996L38.49 1.25996H44.61L39.81 16.88H34.01L29.01 1.25996H35.61ZM59.4754 7.27996C59.4754 9.19996 58.7754 10.4 57.7954 11.34L59.9354 16.88H53.0554L51.7554 13.1H51.7354V16.9H45.3354V1.25996H51.4754C57.1954 1.25996 59.4554 3.27996 59.4754 7.27996ZM50.4354 6.43996L50.0754 6.93996C51.1954 7.65996 53.7354 8.03996 55.2354 8.03996V7.47996C53.7354 7.47996 51.4154 7.03996 50.4354 6.43996ZM67.3275 1.25996V16.9H60.6675V1.25996H67.3275ZM74.2129 16.88H68.7729V1.25996H74.0729C79.8929 1.25996 82.8729 3.13996 82.8729 9.19996C82.8729 15.36 80.0729 16.88 74.2129 16.88ZM72.5729 8.07996L72.2129 8.61996C74.1329 9.23996 76.7729 9.51996 78.8729 9.51996V8.91996C76.7729 8.91996 74.3529 8.57996 72.5729 8.07996ZM83.7482 9.07996C83.7482 3.73996 86.9482 0.959961 92.0882 0.959961C94.5482 0.959961 97.0482 1.39996 98.6482 2.35996V7.93996C95.5482 7.93996 94.1482 7.69996 91.2082 7.03996V11.56H91.9082V7.97996C94.0482 8.41996 96.2882 8.53996 98.6482 8.53996V15.6C96.7682 16.84 94.1682 17.2 91.2882 17.2C86.9482 17.2 83.7482 14.44 83.7482 9.07996ZM112.266 16.9H99.9057V1.25996H112.266V5.95996H105.906V6.65996H112.266V11.5H105.906V12.2H112.266V16.9Z" fill="#4F26F4"/>
</g>
<defs>
<clipPath id="clip0_711_664">
<rect width="113" height="18" fill="white"/>
</clipPath>
</defs>
</svg>
