<svg width="30" height="30" viewBox="0 0 30 30" fill="none" xmlns="http://www.w3.org/2000/svg">
<rect width="30" height="30" rx="5" fill="#4F26F4"/>
<g clip-path="url(#clip0_711_656)">
<path d="M13.5626 22.88H9.12256C8.57027 22.88 8.12256 22.4323 8.12256 21.88V8.26001C8.12256 7.70773 8.57027 7.26001 9.12256 7.26001H13.4226C19.2425 7.26001 22.2225 9.14001 22.2225 15.2C22.2225 21.36 19.4225 22.88 13.5626 22.88ZM12.1443 14.1406C12.0116 14.1053 11.871 14.1573 11.7949 14.2715C11.6783 14.4464 11.7611 14.6839 11.9631 14.7416C13.7439 15.2497 16.0217 15.4947 17.9229 15.5181C18.0885 15.5202 18.2225 15.3857 18.2225 15.22C18.2225 15.0543 18.0884 14.9202 17.9227 14.9178C15.9823 14.8888 13.8136 14.5843 12.1443 14.1406Z" fill="white"/>
</g>
<defs>
<clipPath id="clip0_711_656">
<rect width="15" height="16" fill="white" transform="translate(8 7)"/>
</clipPath>
</defs>
</svg>
