<svg width="30" height="30" viewBox="0 0 30 30" fill="none" xmlns="http://www.w3.org/2000/svg">
<path d="M9.65 20.5702L11.8512 19.9352L25.105 6.52267C25.2095 6.41554 25.2677 6.27159 25.267 6.12191C25.2663 5.97222 25.2068 5.82882 25.1012 5.72267L24.3075 4.92017C24.2562 4.86747 24.1949 4.82551 24.1272 4.79675C24.0596 4.76798 23.9868 4.75299 23.9133 4.75264C23.8397 4.75229 23.7669 4.76659 23.6989 4.79471C23.631 4.82283 23.5693 4.86421 23.5175 4.91642L10.2987 18.2939L9.64875 20.5689L9.65 20.5702ZM25.8787 3.33017L26.6725 4.13392C27.7675 5.24267 27.7775 7.03142 26.6925 8.12892L13.035 21.9514L8.33 23.3064C8.04275 23.3868 7.73533 23.35 7.4752 23.204C7.21508 23.058 7.0235 22.8148 6.9425 22.5277C6.88223 22.3213 6.88136 22.1021 6.94 21.8952L8.30875 17.0952L21.93 3.30892C22.189 3.04812 22.4974 2.8415 22.8371 2.70111C23.1768 2.56073 23.541 2.48938 23.9086 2.49125C24.2761 2.49311 24.6396 2.56814 24.9779 2.71196C25.3162 2.85578 25.6224 3.06676 25.8787 3.33017ZM11.48 4.77142C12.1 4.77142 12.6025 5.28017 12.6025 5.90767C12.6035 6.05601 12.5752 6.20308 12.5193 6.34049C12.4634 6.4779 12.381 6.60294 12.2768 6.70846C12.1725 6.81399 12.0485 6.89794 11.9118 6.9555C11.7751 7.01306 11.6283 7.04311 11.48 7.04392H6.99C5.75 7.04392 4.745 8.06142 4.745 9.31517V22.9477C4.745 24.2027 5.75 25.2202 6.99 25.2202H20.46C21.7 25.2202 22.7063 24.2027 22.7063 22.9477V18.4039C22.7063 17.7764 23.2087 17.2677 23.8288 17.2677C24.4487 17.2677 24.9513 17.7764 24.9513 18.4052V22.9477C24.9513 25.4577 22.94 27.4927 20.46 27.4927H6.99C4.51 27.4927 2.5 25.4577 2.5 22.9477V9.31517C2.5 6.80642 4.51 4.77142 6.99 4.77142H11.48Z" fill="white"/>
</svg>
