<svg width="24" height="24" viewBox="0 0 24 24" fill="none" xmlns="http://www.w3.org/2000/svg">
<path d="M21.7888 1.47978L22.3788 2.06978C23.1918 2.88378 23.0688 4.32678 22.1018 5.29278L9.93481 17.4598L5.99281 18.9018C5.49781 19.0838 5.01581 18.8478 4.91781 18.3768C4.88469 18.2059 4.90028 18.0292 4.96281 17.8668L6.43281 13.8908L18.5658 1.75678C19.5328 0.790781 20.9758 0.665781 21.7888 1.47978ZM9.40381 2.68978C9.53513 2.68978 9.66517 2.71565 9.78649 2.7659C9.90782 2.81616 10.0181 2.88982 10.1109 2.98267C10.2038 3.07553 10.2774 3.18577 10.3277 3.3071C10.3779 3.42842 10.4038 3.55846 10.4038 3.68978C10.4038 3.8211 10.3779 3.95114 10.3277 4.07246C10.2774 4.19379 10.2038 4.30403 10.1109 4.39689C10.0181 4.48975 9.90782 4.56341 9.78649 4.61366C9.66517 4.66392 9.53513 4.68978 9.40381 4.68978H5.40381C4.87338 4.68978 4.36467 4.90049 3.98959 5.27557C3.61452 5.65064 3.40381 6.15935 3.40381 6.68978V18.6898C3.40381 19.2202 3.61452 19.7289 3.98959 20.104C4.36467 20.4791 4.87338 20.6898 5.40381 20.6898H17.4038C17.9342 20.6898 18.443 20.4791 18.818 20.104C19.1931 19.7289 19.4038 19.2202 19.4038 18.6898V14.6898C19.4038 14.4246 19.5092 14.1702 19.6967 13.9827C19.8842 13.7951 20.1386 13.6898 20.4038 13.6898C20.669 13.6898 20.9234 13.7951 21.1109 13.9827C21.2985 14.1702 21.4038 14.4246 21.4038 14.6898V18.6898C21.4038 19.7506 20.9824 20.7681 20.2322 21.5182C19.4821 22.2684 18.4647 22.6898 17.4038 22.6898H5.40381C4.34294 22.6898 3.32553 22.2684 2.57538 21.5182C1.82524 20.7681 1.40381 19.7506 1.40381 18.6898V6.68978C1.40381 5.62892 1.82524 4.6115 2.57538 3.86135C3.32553 3.11121 4.34294 2.68978 5.40381 2.68978H9.40381Z" fill="#242424"/>
</svg>
